 http://www.imdb.com/title/tt0103015/

File Size is large, Due to circumstances. even though its a VHSRip, It is highest quality it can be for the original.

Complete name                            : Sweet Talker 1991 (VHS) 480p.mpg
Format                                   : MPEG-PS
File size                                : 3.44 GiB
Duration                                 : 1h 28mn
Overall bit rate mode                    : Variable
Overall bit rate                         : 5 570 Kbps
Writing library                          : created by Nero

Video
ID                                       : 224 (0xE0)
Format                                   : MPEG Video
Format version                           : Version 2
Format profile                           : Main@Main
Format settings, BVOP                    : Yes
Format settings, Matrix                  : Default
Format settings, GOP                     : M=3, N=12
Duration                                 : 1h 28mn
Bit rate mode                            : Variable
Bit rate                                 : 3 924 Kbps
Maximum bit rate                         : 4 845 Kbps
Width                                    : 720 pixels
Height                                   : 480 pixels
Display aspect ratio                     : 4:3
Frame rate                               : 29.970 fps
Standard                                 : NTSC
Color space                              : YUV
Chroma subsampling                       : 4:2:0
Bit depth                                : 8 bits
Scan type                                : Progressive
Scan order                               : Top Field First
Compression mode                         : Lossy
Bits/(Pixel*Frame)                       : 0.379
Stream size                              : 2.42 GiB (70%)
Writing library                          : created by Nero

Audio
ID                                       : 189 (0xBD)-160 (0xA0)
Format                                   : PCM
Format settings, Endianness              : Big
Format settings, Sign                    : Signed
Muxing mode                              : DVD-Video
Duration                                 : 1h 28mn
Bit rate mode                            : Constant
Bit rate                                 : 1 536 Kbps
Channel(s)                               : 2 channels
Sampling rate                            : 48.0 KHz
Bit depth                                : 16 bits
Delay relative to video                  : -173ms
Stream size                              : 971 MiB (28%)



Advise welcome, using USB Capture.